<?xml version="1.0" encoding="UTF-8"?>
<svg id="Layer_1" data-name="Layer 1" xmlns="http://www.w3.org/2000/svg" viewBox="0 0 123.29 134.92">
  <defs>
    <style>
      .cls-1 {
        fill: #739ad3;
      }

      .cls-1, .cls-2, .cls-3, .cls-4, .cls-5, .cls-6, .cls-7 {
        stroke-width: 0px;
      }

      .cls-2 {
        fill: #6d90ca;
      }

      .cls-3 {
        fill: #2b3376;
      }

      .cls-4 {
        fill: #24286e;
      }

      .cls-5 {
        fill: #7399d3;
      }

      .cls-6 {
        fill: #292f74;
      }

      .cls-7 {
        fill: #fefefe;
      }
    </style>
  </defs>
  <path class="cls-2" d="M.03,67.29c-.21-8,.7-16.05,2.52-23.97,2.59-11.26,7.5-21.31,16.18-29.17,6.13-5.56,13.31-9.31,21.27-11.52,4.97-1.38,10.05-2.07,15.2-2.4,7.84-.51,15.64-.21,23.33,1.32,11.41,2.27,21.4,7.34,29.27,16.08,5.59,6.21,9.31,13.51,11.6,21.53,1.85,6.47,2.8,13.08,3.44,19.77.5,5.23.61,10.45.17,15.63-.85,10.14-2.38,20.17-6.68,29.56-6.04,13.19-15.92,22.13-29.51,27.02-5.82,2.09-11.84,3.14-18,3.51-5.5.33-11.01.38-16.5-.1-11.39-1-21.93-4.42-31.04-11.57-6.43-5.05-11.18-11.43-14.56-18.87-3.05-6.71-4.7-13.79-5.73-21.05-.74-5.19-1.08-10.4-.97-15.78Z"/>
  <path class="cls-6" d="M105.47,69.82c-.37.92-.14,1.89-.19,2.83-.19,3.94-.74,7.83-1.46,11.7-.09.48-.4.75-.73,1.03-.18.7-.84.82-1.36,1.06-4.61,2.07-9.43,3.48-14.35,4.57-4.72,1.05-9.51,1.65-14.32,2.13-1.54.16-3.1.18-4.65.29-5.3.37-10.59.18-15.89-.17-6.87-.45-13.65-1.4-20.32-3.11-3.75-.96-7.45-2.13-10.97-3.77-.49-.23-1.09-.35-1.25-1.01-1.03-.63-.84-1.76-1.01-2.68-.75-4.23-1.34-8.49-1.18-12.81-.16-1.63-.16-3.26,0-4.89,0-.7,0-1.41.01-2.11.43-.5.09-1.2.47-1.71,0-.07.01-.13,0-.2.21-.61.78-.77,1.27-1.02,5.23-2.69,10.82-4.3,16.54-5.52,5.9-1.27,11.88-1.97,17.91-2.29,5.83-.31,11.66-.34,17.47.11,10.06.79,19.97,2.45,29.35,6.4,1.07.45,2.1.98,3.13,1.51.35.18.72.36.84.8.29.38.5.75.5,1.27.03,2.52.12,5.04.18,7.56h0Z"/>
  <path class="cls-7" d="M104.78,60.98c-6.75-3.63-14.04-5.58-21.53-6.91-8.99-1.59-18.07-2.1-27.17-1.7-11.4.5-22.62,2.09-33.28,6.46-1.54.63-3.02,1.43-4.53,2.15-.32-.09-.42-.26-.39-.61.77-8.18,2.26-16.19,5.89-23.66,4.75-9.77,11.97-16.94,22.19-20.85,4.01-1.53,8.21-2.25,12.5-2.4,5.08-.18,10.13-.01,15.07,1.33,10.32,2.8,18.08,8.99,23.64,18.04,3.45,5.61,5.46,11.76,6.69,18.2.58,3.06,1.01,6.13,1.27,9.23.03.37.05.63-.36.73Z"/>
  <path class="cls-7" d="M19.98,85.38c4.57,2.34,9.43,3.81,14.4,4.97,9.68,2.25,19.51,3.1,29.42,2.9,11.76-.24,23.35-1.66,34.48-5.77,1.64-.61,3.28-1.23,4.81-2.1.55.08.44.42.35.8-1.55,6.8-4.03,13.21-8.16,18.88-6.19,8.5-14.39,13.93-24.78,15.8-7.64,1.37-15.25,1.12-22.72-1.12-5-1.5-9.43-4.06-13.37-7.46-7.73-6.66-12.18-15.24-14.45-25.06-.13-.54-1.02-1.26.03-1.84Z"/>
  <path class="cls-3" d="M17.79,65c0,1.63,0,3.26,0,4.89-.06-.04-.13-.06-.2-.07h0c.12-1.61-.25-3.23.2-4.82Z"/>
  <path class="cls-1" d="M17.59,69.82v4.51c-.12-1.51-.56-3.02,0-4.52,0,0,0,0,0,0Z"/>
  <path class="cls-5" d="M105.47,69.82c.57,1.5.1,3.03,0,4.55,0-1.51,0-3.03,0-4.54,0,0,0,0,0,0Z"/>
  <path class="cls-3" d="M18.28,61.18c-.07.59.29,1.31-.47,1.71.06-.6-.3-1.31.47-1.71Z"/>
  <path class="cls-4" d="M18.35,76.55v-2.58c.24.86.2,1.72,0,2.58Z"/>
</svg>